#!OML:ASF F:\VICON\USERDATA\INSTALL\rory3\rory3.ASF
:FULLY-SPECIFIED
:DEGREES
314
root 0.542884 17.4988 27.3562 -0.451881 1.42116 2.69352
lowerback 8.15692 -1.67057 -4.89636
upperback 0.522227 -2.61785 1.32688
thorax -3.74979 -1.20906 4.42619
lowerneck -15.557 -2.20767 -2.2804
upperneck 18.1195 -2.63484 0.706896
head 8.23122 -1.33485 0.306987
rclavicle -1.23743e-014 -1.23246e-014
rhumerus -35.5294 -22.7371 -75.7507
rradius 21.8818
rwrist 9.30869
rhand -18.6614 23.7662
rfingers 7.12502
rthumb 7.63203 -6.07609
lclavicle -1.23743e-014 -1.23246e-014
lhumerus -21.2126 -8.22787 79.0212
lradius 33.5526
lwrist 8.97437
lhand -29.7375 22.8585
lfingers 7.12502
lthumb -3.06396 52.8163
rfemur -30.5182 4.45303 17.1072
rtibia 17.5534
rfoot -9.46955 -13.8378
rtoes -1.27597
lfemur 14.5875 -2.56217 -27.3903
ltibia 16.4871
lfoot -18.8735 -2.60807
ltoes -7.752
315
root 0.52606 17.4791 27.5631 -0.671464 1.44805 2.64467
lowerback 8.21958 -1.69838 -4.89406
upperback 0.652578 -2.65421 1.35084
thorax -3.6437 -1.23313 4.45274
lowerneck -15.8959 -2.18153 -2.22396
upperneck 18.3602 -2.60244 0.688099
head 8.37117 -1.31647 0.290611
rclavicle -1.93815e-015 1.63003e-014
rhumerus -35.7042 -23.1584 -75.4478
rradius 21.5102
rwrist 9.36396
rhand -18.8838 23.2567
rfingers 7.12502
rthumb 7.41731 -6.59325
lclavicle -1.93815e-015 1.63003e-014
lhumerus -20.9619 -7.84855 78.9031
lradius 33.534
lwrist 8.47961
lhand -28.6781 23.9438
lfingers 7.12502
lthumb -2.04084 53.9138
rfemur -30.5978 3.73394 17.6784
rtibia 19.2718
rfoot -8.77497 -12.6348
rtoes -1.76604
lfemur 15.152 -2.75601 -27.3199
ltibia 16.9869
lfoot -18.4934 -2.98882
ltoes -8.54393
316
root 0.504442 17.4611 27.7737 -0.851803 1.48647 2.4522
lowerback 8.21368 -1.69608 -4.81837
upperback 0.780084 -2.63728 1.46292
thorax -3.50729 -1.2323 4.52167
lowerneck -16.1283 -2.19736 -2.28025
upperneck 18.3837 -2.60788 0.705726
head 8.42191 -1.32015 0.302619
rclavicle -3.06128e-014 -9.54166e-015
rhumerus -35.807 -24.1644 -74.7788
rradius 20.9185
rwrist 10.196
rhand -19.0304 23.5458
rfingers 7.12502
rthumb 7.27582 -6.3091
lclavicle -3.06128e-014 -9.54166e-015
lhumerus -20.7831 -7.51121 78.8923
lradius 33.6145
lwrist 8.09889
lhand -27.6971 25.3164
lfingers 7.12502
lthumb -1.09333 55.2933
rfemur -30.6444 3.56901 18.1976
rtibia 21.0508
rfoot -8.31008 -11.6586
rtoes -1.79883
lfemur 15.8982 -2.97527 -27.1062
ltibia 17.2984
lfoot -18.0243 -3.2489
ltoes -9.57204
317
root 0.48034 17.4452 27.992 -1.01882 1.6487 2.1886
lowerback 8.17646 -1.74782 -4.68714
upperback 0.809074 -2.68695 1.59907
thorax -3.45008 -1.26065 4.59249
lowerneck -15.9072 -2.1883 -2.32695
upperneck 18.2068 -2.57553 0.647634
head 8.32216 -1.31484 0.297761
rclavicle -4.56211e-014 7.95139e-015
rhumerus -36.1274 -24.6822 -74.1948
rradius 20.4883
rwrist 10.6382
rhand -19.1395 23.7286
rfingers 7.12502
rthumb 7.1705 -6.12988
lclavicle -4.56211e-014 7.95139e-015
lhumerus -20.7679 -7.41152 78.9425
lradius 33.5648
lwrist 7.93014
lhand -28.7966 24.256
lfingers 7.12502
lthumb -2.15526 54.2249
rfemur -30.6359 3.41014 18.7458
rtibia 22.6916
rfoot -7.54224 -10.4999
rtoes -2.16628
lfemur 16.8747 -3.31381 -26.7919
ltibia 17.5842
lfoot -17.7206 -3.00846
ltoes -14.3685
318
root 0.460192 17.4508 28.2248 -1.14731 1.80081 1.75862
lowerback 8.04191 -1.79564 -4.24027
upperback 0.673386 -2.70288 1.70111
thorax -3.53009 -1.26936 4.44611
lowerneck -15.1266 -2.19556 -2.32135
upperneck 17.8674 -2.60281 0.636081
head 8.06929 -1.3311 0.299508
rclavicle 1.36167e-014 1.35174e-014
rhumerus -36.9067 -25.0708 -73.6091
rradius 20.3405
rwrist 10.9654
rhand -19.1725 23.4867
rfingers 7.12502
rthumb 7.13866 -6.37295
lclavicle 1.36167e-014 1.35174e-014
lhumerus -21.0374 -7.39688 78.9888
lradius 33.381
lwrist 7.42434
lhand -29.5618 24.4818
lfingers 7.12502
lthumb -2.89428 54.4419
rfemur -30.7376 3.35567 19.3434
rtibia 24.2106
rfoot -5.90418 -9.37383
rtoes -5.4821
lfemur 17.663 -3.66325 -26.308
ltibia 18.0335
lfoot -17.2672 -2.81306
ltoes -19.1155
319
root 0.440827 17.4765 28.4668 -1.15625 2.03633 1.39609
lowerback 7.80435 -1.90576 -3.88331
upperback 0.451849 -2.80629 1.84142
thorax -3.62685 -1.31862 4.39696
lowerneck -14.4732 -2.21064 -2.46614
upperneck 17.7588 -2.61088 0.654772
head 7.91942 -1.3454 0.335965
rclavicle 2.05494e-014 1.11319e-014
rhumerus -37.827 -26.0969 -72.4983
rradius 20.0063
rwrist 12.127
rhand -19.1401 23.021
rfingers 7.12502
rthumb 7.16988 -6.83759
lclavicle 2.05494e-014 1.11319e-014
lhumerus -21.4891 -7.33438 79.1579
lradius 33.2897
lwrist 7.33485
lhand -29.4637 25.2451
lfingers 7.12502
lthumb -2.79949 55.2065
rfemur -30.8895 3.4879 19.642
rtibia 25.5285
rfoot -4.55566 -8.59478
rtoes -7.01958
lfemur 17.7704 -4.10707 -25.9223
ltibia 18.7883
lfoot -16.3214 -3.42047
ltoes -20.3049
320
root 0.417885 17.4942 28.701 -1.17363 2.13742 1.45065
lowerback 7.64504 -1.97829 -4.06816
upperback 0.323039 -2.91292 1.89632
thorax -3.64891 -1.36537 4.56545
lowerneck -14.2144 -2.14451 -2.56978
upperneck 17.8704 -2.51255 0.692664
head 7.91088 -1.30346 0.378622
rclavicle 3.72721e-016 -3.97569e-015
rhumerus -38.3847 -27.1483 -71.424
rradius 19.3122
rwrist 13.4093
rhand -19.1449 22.894
rfingers 7.12502
rthumb 7.1653 -6.96467
lclavicle 3.72721e-016 -3.97569e-015
lhumerus -21.7199 -7.13463 79.3208
lradius 33.1246
lwrist 7.51322
lhand -29.9738 24.4885
lfingers 7.12502
lthumb -3.29211 54.4429
rfemur -30.9092 3.76221 19.5205
rtibia 26.626
rfoot -4.11905 -7.99748
rtoes -4.21766
lfemur 17.5621 -4.51904 -26.0231
ltibia 20.0352
lfoot -14.9014 -4.3771
ltoes -19.8239
321
root 0.396631 17.5014 28.9265 -1.43731 1.99826 0.951736
lowerback 7.75236 -2.00016 -3.6768
upperback 0.319903 -2.90401 2.08306
thorax -3.72272 -1.3641 4.54446
lowerneck -14.278 -2.04566 -2.53399
upperneck 18.2421 -2.37125 0.621136
head 8.04216 -1.24211 0.362596
rclavicle -2.38293e-014 7.95139e-016
rhumerus -38.6869 -27.9737 -70.527
rradius 18.4933
rwrist 14.4872
rhand -18.9561 23.4402
rfingers 7.12502
rthumb 7.3475 -6.41223
lclavicle -2.38293e-014 7.95139e-016
lhumerus -21.9478 -6.56711 79.3882
lradius 32.9836
lwrist 7.31758
lhand -28.8426 24.7949
lfingers 7.12502
lthumb -2.19969 54.7633
rfemur -30.5882 4.18547 20.0951
rtibia 27.6366
rfoot -4.27634 -7.06281
rtoes -7.31578
lfemur 17.6853 -4.85695 -25.5419
ltibia 21.7418
lfoot -13.5669 -5.03413
ltoes -20.4872
322
root 0.377348 17.5048 29.1522 -1.75069 1.75005 0.250514
lowerback 7.79001 -1.9954 -3.07767
upperback 0.40353 -2.83593 2.32518
thorax -3.68025 -1.34129 4.45164
lowerneck -14.4376 -1.92877 -2.40783
upperneck 18.534 -2.20498 0.467826
head 8.16215 -1.17048 0.306854
rclavicle -4.45526e-014 4.37326e-015
rhumerus -38.9654 -28.4638 -69.9048
rradius 18.0778
rwrist 15.0826
rhand -18.7467 23.7902
rfingers 7.12502
rthumb 7.54964 -6.0551
lclavicle -4.45526e-014 4.37326e-015
lhumerus -22.0879 -5.77451 79.4942
lradius 32.6459
lwrist 7.21102
lhand -27.8099 25.0504
lfingers 7.12502
lthumb -1.20227 55.0268
rfemur -30.2157 4.46034 20.987
rtibia 28.6996
rfoot -4.02396 -5.92003
rtoes -1.32492
lfemur 17.8651 -5.11632 -24.8401
ltibia 23.736
lfoot -12.4374 -5.61101
ltoes -21.6834
323
root 0.361467 17.5072 29.3786 -1.97078 1.55857 -0.111056
lowerback 7.72193 -1.94904 -2.74696
upperback 0.489734 -2.73881 2.45843
thorax -3.57081 -1.30162 4.38828
lowerneck -14.7316 -1.93165 -2.34077
upperneck 18.827 -2.1884 0.327202
head 8.31066 -1.17243 0.246837
rclavicle 2.41026e-014 -2.38542e-014
rhumerus -39.2765 -29.3115 -69.1412
rradius 17.8169
rwrist 15.9796
rhand -18.6363 23.4292
rfingers 7.12502
rthumb 7.65617 -6.4122
lclavicle 2.41026e-014 -2.38542e-014
lhumerus -22.1152 -4.97568 79.6512
lradius 32.139
lwrist 6.97459
lhand -28.8465 23.6925
lfingers 7.12502
lthumb -2.20345 53.6609
rfemur -29.89 4.45686 21.5953
rtibia 29.7115
rfoot -3.21412 -5.34382
rtoes 1.84248
lfemur 17.7136 -5.21845 -24.4357
ltibia 25.9102
lfoot -11.4552 -6.20199
ltoes -28.618
